<?xml version="1.0" encoding="utf-8"?>
<!-- Generator: Adobe Illustrator 16.0.0, SVG Export Plug-In . SVG Version: 6.00 Build 0)  -->
<!DOCTYPE svg PUBLIC "-//W3C//DTD SVG 1.1//EN" "http://www.w3.org/Graphics/SVG/1.1/DTD/svg11.dtd">
<svg version="1.1" id="Capa_1" xmlns="http://www.w3.org/2000/svg" xmlns:xlink="http://www.w3.org/1999/xlink" x="0px" y="0px"
	 width="90px" height="90px" viewBox="0 0 90 90" enable-background="new 0 0 90 90" xml:space="preserve">
<g opacity="0.3">
	<g>
		<path fill="#FFC55C" d="M47.75,27.567c-1.607,0-2.91,1.303-2.91,2.91v18.74c0,1.608,1.303,2.91,2.91,2.91s2.91-1.302,2.91-2.91
			v-18.74C50.66,28.87,49.357,27.567,47.75,27.567z"/>
	</g>
</g>
<g opacity="0.3">
	<g>
		<circle fill="#FFC55C" cx="47.75" cy="59.619" r="3.929"/>
	</g>
</g>
<g opacity="0.3">
	<g>
		<path fill="#FFC55C" d="M47.75,10.566c-20.59,0-37.25,16.662-37.25,37.25c0,20.59,16.662,37.25,37.25,37.25
			c20.59,0,37.25-16.66,37.25-37.25C85,27.226,68.339,10.566,47.75,10.566z M47.75,79.245c-17.373,0-31.43-14.057-31.43-31.43
			c0-17.373,14.058-31.429,31.43-31.429c17.373,0,31.43,14.058,31.43,31.429C79.18,65.188,65.122,79.245,47.75,79.245z"/>
	</g>
</g>
<g>
	<g>
		<path fill="#FFAD00" d="M46,8.065c-20.59,0-37.25,16.662-37.25,37.25c0,20.589,16.662,37.25,37.25,37.25
			c20.59,0,37.25-16.66,37.25-37.25C83.25,24.725,66.589,8.065,46,8.065z M46,76.744c-17.373,0-31.43-14.057-31.43-31.429
			c0-17.373,14.058-31.43,31.43-31.43c17.373,0,31.43,14.058,31.43,31.43C77.43,62.688,63.372,76.744,46,76.744z"/>
	</g>
</g>
<g>
	<g>
		<path fill="#FFAD00" d="M46,26.818c-1.607,0-2.91,1.303-2.91,2.91v18.74c0,1.608,1.303,2.91,2.91,2.91s2.91-1.302,2.91-2.91
			v-18.74C48.91,28.121,47.607,26.818,46,26.818z"/>
	</g>
</g>
<g>
	<g>
		<circle fill="#FFAD00" cx="46" cy="58.87" r="3.929"/>
	</g>
</g>
</svg>
